<svg width="3300" height="2200" viewBox="0 0 3300 2200" fill="none" xmlns="http://www.w3.org/2000/svg">
<rect width="3300" height="2200" fill="#AAAAAA"/>
<g id="autumn" clip-path="url(#clip0_175_358)">
<g id="Notes">
<path id="artboard" d="M3300 0H0V2200H3300V0Z" fill="white"/>
<path id="Vector" d="M263 292H3036" stroke="black" stroke-width="0.5"/>
<text id="Weight/Scale Variations" fill="black" xml:space="preserve" style="white-space: pre" font-family="Inter" font-size="13" font-weight="bold" letter-spacing="0em"><tspan x="263" y="321.727">Weight/Scale Variations</tspan></text>
<text id="Ultralight" fill="black" xml:space="preserve" style="white-space: pre" font-family="Inter" font-size="13" letter-spacing="0em"><tspan x="531.661" y="321.727">Ultralight</tspan></text>
<text id="Thin" fill="black" xml:space="preserve" style="white-space: pre" font-family="Inter" font-size="13" letter-spacing="0em"><tspan x="843.066" y="321.727">Thin</tspan></text>
<text id="Light" fill="black" xml:space="preserve" style="white-space: pre" font-family="Inter" font-size="13" letter-spacing="0em"><tspan x="1137.77" y="321.727">Light</tspan></text>
<text id="Regular" fill="black" xml:space="preserve" style="white-space: pre" font-family="Inter" font-size="13" letter-spacing="0em"><tspan x="1426.58" y="321.727">Regular</tspan></text>
<text id="Medium" fill="black" xml:space="preserve" style="white-space: pre" font-family="Inter" font-size="13" letter-spacing="0em"><tspan x="1721.99" y="321.727">Medium</tspan></text>
<text id="Semibold" fill="black" xml:space="preserve" style="white-space: pre" font-family="Inter" font-size="13" letter-spacing="0em"><tspan x="2014.65" y="321.727">Semibold</tspan></text>
<text id="Bold" fill="black" xml:space="preserve" style="white-space: pre" font-family="Inter" font-size="13" letter-spacing="0em"><tspan x="2326.29" y="321.727">Bold</tspan></text>
<text id="Heavy" fill="black" xml:space="preserve" style="white-space: pre" font-family="Inter" font-size="13" letter-spacing="0em"><tspan x="2617.32" y="321.727">Heavy</tspan></text>
<text id="Black" fill="black" xml:space="preserve" style="white-space: pre" font-family="Inter" font-size="13" letter-spacing="0em"><tspan x="2916.8" y="321.727">Black</tspan></text>
<path id="Vector_2" d="M263 1903H3036" stroke="black" stroke-width="0.5"/>
<g id="Group">
<path id="Vector_3" d="M272.248 1933.83C276.604 1933.83 280.139 1930.3 280.139 1925.95C280.139 1921.59 276.604 1918.07 272.248 1918.07C267.902 1918.07 264.367 1921.59 264.367 1925.95C264.367 1930.3 267.902 1933.83 272.248 1933.83ZM272.248 1932.35C268.713 1932.35 265.861 1929.48 265.861 1925.95C265.861 1922.41 268.713 1919.55 272.248 1919.55C275.783 1919.55 278.645 1922.41 278.645 1925.95C278.645 1929.48 275.783 1932.35 272.248 1932.35ZM268.654 1925.95C268.654 1926.38 268.957 1926.67 269.406 1926.67H271.506V1928.79C271.506 1929.23 271.799 1929.53 272.228 1929.53C272.678 1929.53 272.971 1929.23 272.971 1928.79V1926.67H275.09C275.529 1926.67 275.832 1926.38 275.832 1925.95C275.832 1925.51 275.529 1925.21 275.09 1925.21H272.971V1923.1C272.971 1922.65 272.678 1922.35 272.228 1922.35C271.799 1922.35 271.506 1922.65 271.506 1923.1V1925.21H269.406C268.957 1925.21 268.654 1925.51 268.654 1925.95Z" fill="black"/>
</g>
<g id="Group_2">
<path id="Vector_4" d="M293.215 1935.91C298.713 1935.91 303.176 1931.45 303.176 1925.95C303.176 1920.45 298.713 1915.99 293.215 1915.99C287.717 1915.99 283.254 1920.45 283.254 1925.95C283.254 1931.45 287.717 1935.91 293.215 1935.91ZM293.215 1934.25C288.625 1934.25 284.914 1930.54 284.914 1925.95C284.914 1921.36 288.625 1917.65 293.215 1917.65C297.805 1917.65 301.516 1921.36 301.516 1925.95C301.516 1930.54 297.805 1934.25 293.215 1934.25ZM288.684 1925.95C288.684 1926.43 289.016 1926.75 289.514 1926.75H292.385V1929.63C292.385 1930.12 292.717 1930.46 293.195 1930.46C293.684 1930.46 294.025 1930.13 294.025 1929.63V1926.75H296.906C297.395 1926.75 297.736 1926.43 297.736 1925.95C297.736 1925.46 297.395 1925.12 296.906 1925.12H294.025V1922.25C294.025 1921.75 293.684 1921.41 293.195 1921.41C292.717 1921.41 292.385 1921.75 292.385 1922.25V1925.12H289.514C289.016 1925.12 288.684 1925.46 288.684 1925.95Z" fill="black"/>
</g>
<g id="Group_3">
<path id="Vector_5" d="M319.895 1938.66C326.916 1938.66 332.619 1932.97 332.619 1925.95C332.619 1918.93 326.916 1913.22 319.895 1913.22C312.873 1913.22 307.18 1918.93 307.18 1925.95C307.18 1932.97 312.873 1938.66 319.895 1938.66ZM319.895 1936.85C313.869 1936.85 308.996 1931.97 308.996 1925.95C308.996 1919.92 313.869 1915.05 319.895 1915.05C325.92 1915.05 330.793 1919.92 330.793 1925.95C330.793 1931.97 325.92 1936.85 319.895 1936.85ZM314.123 1925.95C314.123 1926.47 314.494 1926.83 315.041 1926.83H318.987V1930.78C318.987 1931.32 319.358 1931.7 319.875 1931.7C320.412 1931.7 320.783 1931.33 320.783 1930.78V1926.83H324.739C325.276 1926.83 325.657 1926.47 325.657 1925.95C325.657 1925.4 325.285 1925.03 324.739 1925.03H320.783V1921.09C320.783 1920.54 320.412 1920.16 319.875 1920.16C319.358 1920.16 318.987 1920.54 318.987 1921.09V1925.03H315.041C314.494 1925.03 314.123 1925.4 314.123 1925.95Z" fill="black"/>
</g>
<text id="Design Variations" fill="black" xml:space="preserve" style="white-space: pre" font-family="Inter" font-size="13" font-weight="bold" letter-spacing="0em"><tspan x="263" y="1952.73">Design Variations</tspan></text>
<text id="Symbols are supported in up to nine weights and three scales." fill="black" xml:space="preserve" style="white-space: pre" font-family="Inter" font-size="13" letter-spacing="0em"><tspan x="263" y="1970.73">Symbols are supported in up to nine weights and three scales.</tspan></text>
<text id="For optimal layout with text and other symbols, vertically align" fill="black" xml:space="preserve" style="white-space: pre" font-family="Inter" font-size="13" letter-spacing="0em"><tspan x="263" y="1988.73">For optimal layout with text and other symbols, vertically align</tspan></text>
<text id="symbols with the adjacent text." fill="black" xml:space="preserve" style="white-space: pre" font-family="Inter" font-size="13" letter-spacing="0em"><tspan x="263" y="2006.73">symbols with the adjacent text.</tspan></text>
<path id="Vector_6" d="M776 1919V1933" stroke="#00AEEF" stroke-width="0.5"/>
<g id="Group_4">
<path id="Vector_7" d="M779.311 1933.16C779.828 1933.16 780.082 1932.96 780.268 1932.41L781.527 1928.97H787.289L788.549 1932.41C788.734 1932.96 788.988 1933.16 789.496 1933.16C790.014 1933.16 790.346 1932.84 790.346 1932.36C790.346 1932.19 790.316 1932.03 790.238 1931.83L785.658 1919.63C785.434 1919.04 785.033 1918.73 784.408 1918.73C783.803 1918.73 783.393 1919.03 783.178 1919.62L778.598 1931.84C778.52 1932.04 778.49 1932.2 778.49 1932.37C778.49 1932.85 778.803 1933.16 779.311 1933.16ZM782.006 1927.48L784.379 1920.91H784.428L786.801 1927.48H782.006Z" fill="black"/>
</g>
<path id="Vector_8" d="M792.836 1919V1933" stroke="#00AEEF" stroke-width="0.5"/>
<text id="Margins" fill="black" xml:space="preserve" style="white-space: pre" font-family="Inter" font-size="13" font-weight="bold" letter-spacing="0em"><tspan x="776" y="1952.73">Margins</tspan></text>
<text id="Leading and trailing margins on the left and right side of each symbol" fill="black" xml:space="preserve" style="white-space: pre" font-family="Inter" font-size="13" letter-spacing="0em"><tspan x="776" y="1970.73">Leading and trailing margins on the left and right side of each symbol</tspan></text>
<text id="can be adjusted by modifying the x-location of the margin guidelines." fill="black" xml:space="preserve" style="white-space: pre" font-family="Inter" font-size="13" letter-spacing="0em"><tspan x="776" y="1988.73">can be adjusted by modifying the x-location of the margin guidelines.</tspan></text>
<text id="Modifications are automatically applied proportionally to all" fill="black" xml:space="preserve" style="white-space: pre" font-family="Inter" font-size="13" letter-spacing="0em"><tspan x="776" y="2006.73">Modifications are automatically applied proportionally to all</tspan></text>
<text id="scales and weights." fill="black" xml:space="preserve" style="white-space: pre" font-family="Inter" font-size="13" letter-spacing="0em"><tspan x="776" y="2024.73">scales and weights.</tspan></text>
<g id="Group_5">
<path id="Vector_9" d="M1291.84 1934.87L1293.54 1936.57C1294.4 1937.44 1295.39 1937.38 1296.31 1936.36L1307.01 1924.57L1306.04 1923.6L1295.43 1935.28C1295.07 1935.68 1294.74 1935.77 1294.27 1935.3L1293.1 1934.14C1292.63 1933.68 1292.74 1933.34 1293.14 1932.98L1304.62 1922.18L1303.64 1921.21L1292.05 1932.1C1291.06 1933.02 1290.98 1934 1291.84 1934.87ZM1298.26 1916.67C1297.84 1917.08 1297.81 1917.66 1298.04 1918.05C1298.28 1918.41 1298.74 1918.64 1299.38 1918.48C1300.85 1918.14 1302.37 1918.08 1303.79 1919.02L1303.21 1920.47C1302.87 1921.3 1303.04 1921.89 1303.58 1922.43L1305.87 1924.75C1306.36 1925.24 1306.77 1925.26 1307.34 1925.16L1308.4 1924.96L1309.07 1925.64L1309.03 1926.19C1308.99 1926.69 1309.12 1927.07 1309.61 1927.55L1310.37 1928.29C1310.85 1928.77 1311.46 1928.8 1311.93 1928.33L1314.84 1925.41C1315.31 1924.94 1315.29 1924.35 1314.81 1923.87L1314.04 1923.11C1313.56 1922.63 1313.19 1922.47 1312.71 1922.51L1312.13 1922.56L1311.49 1921.93L1311.73 1920.8C1311.86 1920.24 1311.71 1919.8 1311.12 1919.21L1308.92 1917.02C1305.58 1913.7 1301.15 1913.78 1298.26 1916.67ZM1299.75 1917.04C1302.18 1915.27 1305.47 1915.57 1307.7 1917.79L1310.13 1920.21C1310.37 1920.44 1310.41 1920.63 1310.34 1920.97L1310.02 1922.45L1311.52 1923.94L1312.51 1923.88C1312.76 1923.87 1312.84 1923.89 1313.03 1924.08L1313.61 1924.66L1311.17 1927.1L1310.59 1926.53C1310.4 1926.33 1310.37 1926.25 1310.38 1925.99L1310.45 1925.01L1308.95 1923.53L1307.43 1923.78C1307.11 1923.85 1306.96 1923.82 1306.71 1923.59L1304.71 1921.58C1304.46 1921.35 1304.43 1921.18 1304.59 1920.81L1305.46 1918.72C1303.9 1917.27 1301.87 1916.64 1299.84 1917.24C1299.68 1917.28 1299.62 1917.15 1299.75 1917.04Z" fill="black"/>
</g>
<text id="Exporting" fill="black" xml:space="preserve" style="white-space: pre" font-family="Inter" font-size="13" font-weight="bold" letter-spacing="0em"><tspan x="1289" y="1952.73">Exporting</tspan></text>
<text id="Symbols should be outlined when exporting to ensure the" fill="black" xml:space="preserve" style="white-space: pre" font-family="Inter" font-size="13" letter-spacing="0em"><tspan x="1289" y="1970.73">Symbols should be outlined when exporting to ensure the</tspan></text>
<text id="design is preserved when submitting to Xcode." fill="black" xml:space="preserve" style="white-space: pre" font-family="Inter" font-size="13" letter-spacing="0em"><tspan x="1289" y="1988.73">design is preserved when submitting to Xcode.</tspan></text>
<text id="template-version" fill="black" xml:space="preserve" style="white-space: pre" font-family="Inter" font-size="13" letter-spacing="0em"><tspan x="2946.54" y="1932.73">Template v.6.0</tspan></text>
<text id="Requires Xcode 16 or greater" fill="black" xml:space="preserve" style="white-space: pre" font-family="Inter" font-size="13" letter-spacing="0em"><tspan x="2858.16" y="1950.73">Requires Xcode 16 or greater</tspan></text>
<text id="descriptive-name" fill="black" xml:space="preserve" style="white-space: pre" font-family="Inter" font-size="13" letter-spacing="0em"><tspan x="2810.58" y="1968.73">Generated from square.and.arrow.up</tspan></text>
<text id="Typeset at 100.0 points" fill="black" xml:space="preserve" style="white-space: pre" font-family="Inter" font-size="13" letter-spacing="0em"><tspan x="2892.56" y="1986.73">Typeset at 100.0 points</tspan></text>
<text id="Small" fill="black" xml:space="preserve" style="white-space: pre" font-family="Inter" font-size="13" letter-spacing="0em"><tspan x="263" y="725.727">Small</tspan></text>
<text id="Medium_2" fill="black" xml:space="preserve" style="white-space: pre" font-family="Inter" font-size="13" letter-spacing="0em"><tspan x="263" y="1155.73">Medium</tspan></text>
<text id="Large" fill="black" xml:space="preserve" style="white-space: pre" font-family="Inter" font-size="13" letter-spacing="0em"><tspan x="263" y="1585.73">Large</tspan></text>
</g>
<g id="Guides">
<g id="H-reference">
<path id="Vector_10" d="M339.994 696H342.638L368.328 628.868H369.03V625.541H367.123L339.994 696ZM350.688 671.52H385.981L385.231 669.272H351.438L350.688 671.52ZM394.12 696H396.764L369.638 625.541H368.433V628.868L394.12 696Z" fill="#27AAE1"/>
</g>
<path id="Baseline-S" d="M263 696H3036" stroke="#27AAE1" stroke-width="0.5"/>
<path id="Capline-S" d="M263 625.541H3036" stroke="#27AAE1" stroke-width="0.5"/>
<g id="H-reference_2">
<path id="Vector_11" d="M339.994 1126H342.638L368.328 1058.87H369.03V1055.54H367.123L339.994 1126ZM350.688 1101.52H385.981L385.231 1099.27H351.438L350.688 1101.52ZM394.12 1126H396.764L369.638 1055.54H368.433V1058.87L394.12 1126Z" fill="#27AAE1"/>
</g>
<path id="Baseline-M" d="M263 1126H3036" stroke="#27AAE1" stroke-width="0.5"/>
<path id="Capline-M" d="M263 1055.54H3036" stroke="#27AAE1" stroke-width="0.5"/>
<g id="H-reference_3">
<path id="Vector_12" d="M339.994 1556H342.638L368.328 1488.87H369.03V1485.54H367.123L339.994 1556ZM350.688 1531.52H385.981L385.231 1529.27H351.438L350.688 1531.52ZM394.12 1556H396.764L369.638 1485.54H368.433V1488.87L394.12 1556Z" fill="#27AAE1"/>
</g>
<path id="Baseline-L" d="M263 1556H3036" stroke="#27AAE1" stroke-width="0.5"/>
<path id="Capline-L" d="M263 1485.54H3036" stroke="#27AAE1" stroke-width="0.5"/>
<path id="right-margin-Black-S" d="M2980.81 600.785V720.121" stroke="#00AEEF" stroke-width="0.5"/>
<path id="left-margin-Black-S" d="M2885.99 600.785V720.121" stroke="#00AEEF" stroke-width="0.5"/>
<path id="right-margin-Regular-S" d="M1493.96 600.785V720.121" stroke="#00AEEF" stroke-width="0.5"/>
<path id="left-margin-Regular-S" d="M1405.73 600.785V720.121" stroke="#00AEEF" stroke-width="0.5"/>
<path id="right-margin-Ultralight-S" d="M601.625 600.785V720.121" stroke="#00AEEF" stroke-width="0.5"/>
<path id="left-margin-Ultralight-S" d="M517.797 600.785V720.121" stroke="#00AEEF" stroke-width="0.5"/>
</g>
<g id="Symbols">
<g id="Black-S">
<path id="Vector_13" d="M2960.76 648.002C2959.88 646.186 2957.02 645.95 2951.14 647.313C2954.7 643.211 2957.22 639.568 2958.64 636.455C2960.77 631.759 2959.84 629.417 2958.67 628.28C2956.78 626.424 2953.11 626.591 2948.34 628.75C2945.34 630.111 2940.69 632.809 2934.88 638.078C2935.12 634.766 2934.49 632.491 2933 631.295C2931.78 630.31 2930.08 630.205 2928.21 630.999C2925.38 632.206 2922.32 635.313 2919.82 639.523C2918.27 642.129 2916.41 646.059 2915.36 651.136C2914.55 649.667 2913.58 648.913 2912.41 648.85C2909.52 648.695 2907.64 653.044 2906.78 655.649C2905.23 660.32 2904.64 666.07 2905.21 671.031C2905.89 676.94 2908.11 681.463 2911.64 684.183C2910.56 686.816 2909.58 689.502 2908.69 692.236C2908.46 692.956 2908.99 693.692 2909.75 693.692C2910.22 693.692 2910.65 693.393 2910.8 692.923C2913.54 684.51 2917.18 676.569 2921.69 669.206C2921.69 669.196 2921.7 669.187 2921.71 669.177C2924.78 665.393 2929.56 663.465 2934.57 664.564C2935.17 664.695 2935.77 664.316 2935.9 663.716C2936.03 663.116 2935.65 662.524 2935.05 662.392C2931.65 661.647 2928.32 662.095 2925.46 663.454C2928.71 658.82 2932.4 654.363 2936.4 650.256C2936.83 649.816 2936.82 649.112 2936.38 648.684C2935.94 648.256 2935.24 648.265 2934.81 648.705C2932.83 650.735 2930.93 652.854 2929.11 655.036C2929.31 653.273 2929.32 651.485 2929.13 649.704C2929.06 649.094 2928.51 648.653 2927.9 648.72C2927.29 648.787 2926.85 649.336 2926.92 649.946C2927.26 653.109 2926.9 656.151 2925.99 658.959C2923.37 662.405 2920.97 666.004 2918.77 669.743C2918.41 667.703 2917.61 665.691 2916.35 663.85C2916.01 663.344 2915.31 663.215 2914.81 663.562C2914.3 663.909 2914.17 664.6 2914.52 665.107C2916.14 667.472 2916.96 670.323 2916.76 673.328C2915.23 676.162 2913.82 679.069 2912.53 682.047C2906.01 676.453 2906.38 663.902 2908.89 656.348C2910.17 652.485 2911.63 651.069 2912.27 651.069C2912.28 651.069 2912.28 651.069 2912.29 651.07C2912.79 651.096 2913.85 652.184 2914.69 656.094C2914.81 656.631 2915.3 657.004 2915.85 656.968C2916.4 656.934 2916.84 656.504 2916.89 655.957C2918.27 640.326 2928.75 630.721 2931.61 633.026C2932.77 633.961 2933.02 636.877 2932.27 640.826C2932.07 641.891 2933.37 642.585 2934.14 641.828C2939.33 636.766 2944.7 632.841 2949.26 630.775C2953.69 628.769 2956.22 628.991 2957.12 629.868C2958.97 631.68 2956.61 638.299 2947.03 648.549C2946.69 648.913 2946.64 649.459 2946.9 649.884C2947.15 650.31 2947.66 650.512 2948.14 650.379C2957.71 647.718 2958.72 648.966 2958.76 648.966C2958.76 648.978 2959.11 650.247 2953.79 655.104C2950.46 658.144 2945.46 662.098 2938.92 666.855C2938.51 667.153 2938.35 667.689 2938.54 668.16C2938.72 668.631 2939.2 668.918 2939.7 668.858C2946.16 668.085 2946.93 669.293 2946.99 669.433C2947.32 670.125 2947.02 671.231 2946.15 672.546C2942.74 677.726 2930.84 685.318 2920.69 684.958C2920.08 684.935 2919.57 685.416 2919.54 686.03C2919.52 686.643 2920 687.158 2920.61 687.18C2933.84 687.65 2952.05 674.958 2949 668.486C2948.12 666.601 2945.41 666.362 2943.32 666.374C2960.25 653.785 2961.76 650.078 2960.76 648.002Z" fill="black"/>
</g>
<g id="Regular-S">
<path id="Vector_14" d="M1477.76 648.002C1476.88 646.186 1474.02 645.95 1468.14 647.313C1471.7 643.211 1474.22 639.568 1475.64 636.455C1477.77 631.759 1476.84 629.417 1475.67 628.28C1473.78 626.424 1470.11 626.591 1465.34 628.75C1462.34 630.111 1457.69 632.809 1451.88 638.078C1452.12 634.766 1451.49 632.491 1450 631.295C1448.78 630.31 1447.08 630.205 1445.21 630.999C1442.38 632.206 1439.32 635.313 1436.82 639.523C1435.27 642.129 1433.41 646.059 1432.36 651.136C1431.55 649.667 1430.58 648.913 1429.41 648.85C1426.52 648.695 1424.64 653.044 1423.78 655.649C1422.23 660.32 1421.64 666.07 1422.21 671.031C1422.89 676.94 1425.11 681.463 1428.64 684.183C1427.56 686.816 1426.58 689.502 1425.69 692.236C1425.46 692.956 1425.99 693.692 1426.75 693.692C1427.22 693.692 1427.65 693.393 1427.8 692.923C1430.54 684.51 1434.18 676.569 1438.69 669.206C1438.69 669.196 1438.7 669.187 1438.71 669.177C1441.78 665.393 1446.56 663.465 1451.57 664.564C1452.17 664.695 1452.77 664.316 1452.9 663.716C1453.03 663.116 1452.65 662.524 1452.05 662.392C1448.65 661.647 1445.32 662.095 1442.46 663.454C1445.71 658.82 1449.4 654.363 1453.4 650.256C1453.83 649.816 1453.82 649.112 1453.38 648.684C1452.94 648.256 1452.24 648.265 1451.81 648.705C1449.83 650.735 1447.93 652.854 1446.11 655.036C1446.31 653.273 1446.32 651.485 1446.13 649.704C1446.06 649.094 1445.51 648.653 1444.9 648.72C1444.29 648.787 1443.85 649.336 1443.92 649.946C1444.26 653.109 1443.9 656.151 1442.99 658.959C1440.37 662.405 1437.97 666.004 1435.77 669.743C1435.41 667.703 1434.61 665.691 1433.35 663.85C1433.01 663.344 1432.31 663.215 1431.81 663.562C1431.3 663.909 1431.17 664.6 1431.52 665.107C1433.14 667.472 1433.96 670.323 1433.76 673.328C1432.23 676.162 1430.82 679.069 1429.53 682.047C1423.01 676.453 1423.38 663.902 1425.89 656.348C1427.17 652.485 1428.63 651.069 1429.27 651.069C1429.28 651.069 1429.28 651.069 1429.29 651.07C1429.79 651.096 1430.85 652.184 1431.69 656.094C1431.81 656.631 1432.3 657.004 1432.85 656.968C1433.4 656.934 1433.84 656.504 1433.89 655.957C1435.27 640.326 1445.75 630.721 1448.61 633.026C1449.77 633.961 1450.02 636.877 1449.27 640.826C1449.07 641.891 1450.37 642.585 1451.14 641.828C1456.33 636.766 1461.7 632.841 1466.26 630.775C1470.69 628.769 1473.22 628.991 1474.12 629.868C1475.97 631.68 1473.61 638.299 1464.03 648.549C1463.69 648.913 1463.64 649.459 1463.9 649.884C1464.15 650.31 1464.66 650.512 1465.14 650.379C1474.71 647.718 1475.72 648.966 1475.76 648.966C1475.76 648.978 1476.11 650.247 1470.79 655.104C1467.46 658.144 1462.46 662.098 1455.92 666.855C1455.51 667.153 1455.35 667.689 1455.54 668.16C1455.72 668.631 1456.2 668.918 1456.7 668.858C1463.16 668.085 1463.93 669.293 1463.99 669.433C1464.32 670.125 1464.02 671.231 1463.15 672.546C1459.74 677.726 1447.84 685.318 1437.69 684.958C1437.08 684.935 1436.57 685.416 1436.54 686.03C1436.52 686.643 1437 687.158 1437.61 687.18C1450.84 687.65 1469.05 674.958 1466 668.486C1465.12 666.601 1462.41 666.362 1460.32 666.374C1477.25 653.785 1478.76 650.078 1477.76 648.002Z" fill="black"/>
</g>
<g id="Ultralight-S">
<path id="Vector_15" d="M586.762 648.002C585.884 646.186 583.023 645.95 577.142 647.313C580.703 643.211 583.218 639.568 584.635 636.455C586.774 631.759 585.837 629.417 584.674 628.28C582.778 626.424 579.109 626.591 574.344 628.75C571.342 630.111 566.694 632.809 560.884 638.078C561.119 634.766 560.491 632.491 559.004 631.295C557.78 630.31 556.078 630.205 554.213 630.999C551.377 632.206 548.317 635.313 545.819 639.523C544.272 642.129 542.412 646.059 541.356 651.136C540.553 649.667 539.577 648.913 538.411 648.85C535.52 648.695 533.644 653.044 532.779 655.649C531.229 660.32 530.644 666.07 531.214 671.031C531.892 676.94 534.107 681.463 537.638 684.183C536.562 686.816 535.578 689.502 534.69 692.236C534.456 692.956 534.994 693.692 535.747 693.692C536.216 693.692 536.651 693.393 536.804 692.923C539.538 684.51 543.184 676.569 547.685 669.206C547.694 669.196 547.703 669.187 547.711 669.177C550.777 665.393 555.563 663.465 560.573 664.564C561.173 664.695 561.766 664.316 561.897 663.716C562.028 663.116 561.649 662.524 561.049 662.392C557.649 661.647 554.324 662.095 551.458 663.454C554.714 658.82 558.404 654.363 562.403 650.256C562.831 649.816 562.822 649.112 562.382 648.684C561.942 648.256 561.238 648.265 560.81 648.705C558.833 650.735 556.926 652.854 555.108 655.036C555.312 653.273 555.321 651.485 555.126 649.704C555.059 649.094 554.51 648.653 553.9 648.72C553.29 648.787 552.85 649.336 552.916 649.946C553.262 653.109 552.904 656.151 551.987 658.959C549.373 662.405 546.966 666.004 544.771 669.743C544.405 667.703 543.614 665.691 542.353 663.85C542.006 663.344 541.314 663.215 540.808 663.562C540.301 663.909 540.172 664.6 540.519 665.107C542.139 667.472 542.956 670.323 542.756 673.328C541.23 676.162 539.822 679.069 538.535 682.047C532.008 676.453 532.382 663.902 534.889 656.348C536.171 652.485 537.63 651.069 538.27 651.069C538.277 651.069 538.285 651.069 538.292 651.07C538.786 651.096 539.847 652.184 540.695 656.094C540.811 656.631 541.3 657.004 541.85 656.968C542.399 656.934 542.84 656.504 542.888 655.957C544.271 640.326 554.746 630.721 557.61 633.026C558.772 633.961 559.02 636.877 558.273 640.826C558.072 641.891 559.365 642.585 560.141 641.828C565.332 636.766 570.702 632.841 575.261 630.775C579.688 628.769 582.223 628.991 583.119 629.868C584.971 631.68 582.605 638.299 573.034 648.549C572.694 648.913 572.638 649.459 572.896 649.884C573.155 650.31 573.664 650.512 574.144 650.379C583.714 647.718 584.718 648.966 584.759 648.966C584.763 648.978 585.113 650.247 579.793 655.104C576.463 658.144 571.458 662.098 564.918 666.855C564.509 667.153 564.352 667.689 564.537 668.16C564.722 668.631 565.201 668.918 565.703 668.858C572.16 668.085 572.926 669.293 572.992 669.433C573.318 670.125 573.02 671.231 572.153 672.546C568.736 677.726 556.835 685.318 546.694 684.958C546.076 684.935 545.565 685.416 545.543 686.03C545.522 686.643 546.001 687.158 546.615 687.18C559.839 687.65 578.052 674.958 575.004 668.486C574.116 666.601 571.405 666.362 569.325 666.374C586.253 653.785 587.764 650.078 586.762 648.002Z" fill="black"/>
</g>
</g>
</g>
<defs>
<clipPath id="clip0_175_358">
<rect width="3300" height="2200" fill="white"/>
</clipPath>
</defs>
</svg>
