<svg width="3300" height="2200" viewBox="0 0 3300 2200" fill="none" xmlns="http://www.w3.org/2000/svg">
<rect width="3300" height="2200" fill="#AAAAAA"/>
<g id="flower" clip-path="url(#clip0_175_358)">
<g id="Notes">
<path id="artboard" d="M3300 0H0V2200H3300V0Z" fill="white"/>
<path id="Vector" d="M263 292H3036" stroke="black" stroke-width="0.5"/>
<text id="Weight/Scale Variations" fill="black" xml:space="preserve" style="white-space: pre" font-family="Inter" font-size="13" font-weight="bold" letter-spacing="0em"><tspan x="263" y="321.727">Weight/Scale Variations</tspan></text>
<text id="Ultralight" fill="black" xml:space="preserve" style="white-space: pre" font-family="Inter" font-size="13" letter-spacing="0em"><tspan x="531.661" y="321.727">Ultralight</tspan></text>
<text id="Thin" fill="black" xml:space="preserve" style="white-space: pre" font-family="Inter" font-size="13" letter-spacing="0em"><tspan x="843.067" y="321.727">Thin</tspan></text>
<text id="Light" fill="black" xml:space="preserve" style="white-space: pre" font-family="Inter" font-size="13" letter-spacing="0em"><tspan x="1137.77" y="321.727">Light</tspan></text>
<text id="Regular" fill="black" xml:space="preserve" style="white-space: pre" font-family="Inter" font-size="13" letter-spacing="0em"><tspan x="1426.58" y="321.727">Regular</tspan></text>
<text id="Medium" fill="black" xml:space="preserve" style="white-space: pre" font-family="Inter" font-size="13" letter-spacing="0em"><tspan x="1721.99" y="321.727">Medium</tspan></text>
<text id="Semibold" fill="black" xml:space="preserve" style="white-space: pre" font-family="Inter" font-size="13" letter-spacing="0em"><tspan x="2014.65" y="321.727">Semibold</tspan></text>
<text id="Bold" fill="black" xml:space="preserve" style="white-space: pre" font-family="Inter" font-size="13" letter-spacing="0em"><tspan x="2326.29" y="321.727">Bold</tspan></text>
<text id="Heavy" fill="black" xml:space="preserve" style="white-space: pre" font-family="Inter" font-size="13" letter-spacing="0em"><tspan x="2617.32" y="321.727">Heavy</tspan></text>
<text id="Black" fill="black" xml:space="preserve" style="white-space: pre" font-family="Inter" font-size="13" letter-spacing="0em"><tspan x="2916.8" y="321.727">Black</tspan></text>
<path id="Vector_2" d="M263 1903H3036" stroke="black" stroke-width="0.5"/>
<g id="Group">
<path id="Vector_3" d="M272.248 1933.83C276.604 1933.83 280.139 1930.3 280.139 1925.95C280.139 1921.59 276.604 1918.07 272.248 1918.07C267.902 1918.07 264.367 1921.59 264.367 1925.95C264.367 1930.3 267.902 1933.83 272.248 1933.83ZM272.248 1932.35C268.713 1932.35 265.861 1929.48 265.861 1925.95C265.861 1922.41 268.713 1919.55 272.248 1919.55C275.783 1919.55 278.645 1922.41 278.645 1925.95C278.645 1929.48 275.783 1932.35 272.248 1932.35ZM268.654 1925.95C268.654 1926.38 268.957 1926.67 269.406 1926.67H271.506V1928.79C271.506 1929.23 271.799 1929.53 272.228 1929.53C272.678 1929.53 272.971 1929.23 272.971 1928.79V1926.67H275.09C275.529 1926.67 275.832 1926.38 275.832 1925.95C275.832 1925.51 275.529 1925.21 275.09 1925.21H272.971V1923.1C272.971 1922.65 272.678 1922.35 272.228 1922.35C271.799 1922.35 271.506 1922.65 271.506 1923.1V1925.21H269.406C268.957 1925.21 268.654 1925.51 268.654 1925.95Z" fill="black"/>
</g>
<g id="Group_2">
<path id="Vector_4" d="M293.215 1935.91C298.713 1935.91 303.176 1931.45 303.176 1925.95C303.176 1920.45 298.713 1915.99 293.215 1915.99C287.717 1915.99 283.254 1920.45 283.254 1925.95C283.254 1931.45 287.717 1935.91 293.215 1935.91ZM293.215 1934.25C288.625 1934.25 284.914 1930.54 284.914 1925.95C284.914 1921.36 288.625 1917.65 293.215 1917.65C297.805 1917.65 301.516 1921.36 301.516 1925.95C301.516 1930.54 297.805 1934.25 293.215 1934.25ZM288.684 1925.95C288.684 1926.43 289.016 1926.75 289.514 1926.75H292.385V1929.63C292.385 1930.12 292.717 1930.46 293.195 1930.46C293.684 1930.46 294.026 1930.13 294.026 1929.63V1926.75H296.906C297.395 1926.75 297.736 1926.43 297.736 1925.95C297.736 1925.46 297.395 1925.12 296.906 1925.12H294.026V1922.25C294.026 1921.75 293.684 1921.41 293.195 1921.41C292.717 1921.41 292.385 1921.75 292.385 1922.25V1925.12H289.514C289.016 1925.12 288.684 1925.46 288.684 1925.95Z" fill="black"/>
</g>
<g id="Group_3">
<path id="Vector_5" d="M319.895 1938.66C326.916 1938.66 332.619 1932.97 332.619 1925.95C332.619 1918.93 326.916 1913.22 319.895 1913.22C312.873 1913.22 307.18 1918.93 307.18 1925.95C307.18 1932.97 312.873 1938.66 319.895 1938.66ZM319.895 1936.85C313.869 1936.85 308.996 1931.97 308.996 1925.95C308.996 1919.92 313.869 1915.05 319.895 1915.05C325.92 1915.05 330.793 1919.92 330.793 1925.95C330.793 1931.97 325.92 1936.85 319.895 1936.85ZM314.123 1925.95C314.123 1926.47 314.494 1926.83 315.041 1926.83H318.987V1930.78C318.987 1931.32 319.358 1931.7 319.875 1931.7C320.412 1931.7 320.783 1931.33 320.783 1930.78V1926.83H324.738C325.276 1926.83 325.656 1926.47 325.656 1925.95C325.656 1925.4 325.285 1925.03 324.738 1925.03H320.783V1921.09C320.783 1920.54 320.412 1920.16 319.875 1920.16C319.358 1920.16 318.987 1920.54 318.987 1921.09V1925.03H315.041C314.494 1925.03 314.123 1925.4 314.123 1925.95Z" fill="black"/>
</g>
<text id="Design Variations" fill="black" xml:space="preserve" style="white-space: pre" font-family="Inter" font-size="13" font-weight="bold" letter-spacing="0em"><tspan x="263" y="1952.73">Design Variations</tspan></text>
<text id="Symbols are supported in up to nine weights and three scales." fill="black" xml:space="preserve" style="white-space: pre" font-family="Inter" font-size="13" letter-spacing="0em"><tspan x="263" y="1970.73">Symbols are supported in up to nine weights and three scales.</tspan></text>
<text id="For optimal layout with text and other symbols, vertically align" fill="black" xml:space="preserve" style="white-space: pre" font-family="Inter" font-size="13" letter-spacing="0em"><tspan x="263" y="1988.73">For optimal layout with text and other symbols, vertically align</tspan></text>
<text id="symbols with the adjacent text." fill="black" xml:space="preserve" style="white-space: pre" font-family="Inter" font-size="13" letter-spacing="0em"><tspan x="263" y="2006.73">symbols with the adjacent text.</tspan></text>
<path id="Vector_6" d="M776 1919V1933" stroke="#00AEEF" stroke-width="0.5"/>
<g id="Group_4">
<path id="Vector_7" d="M779.311 1933.16C779.828 1933.16 780.082 1932.96 780.268 1932.41L781.527 1928.97H787.289L788.549 1932.41C788.734 1932.96 788.988 1933.16 789.496 1933.16C790.014 1933.16 790.346 1932.84 790.346 1932.36C790.346 1932.19 790.316 1932.03 790.238 1931.83L785.658 1919.63C785.434 1919.04 785.033 1918.73 784.408 1918.73C783.803 1918.73 783.393 1919.03 783.178 1919.62L778.598 1931.84C778.52 1932.04 778.49 1932.2 778.49 1932.37C778.49 1932.85 778.803 1933.16 779.311 1933.16ZM782.006 1927.48L784.379 1920.91H784.428L786.801 1927.48H782.006Z" fill="black"/>
</g>
<path id="Vector_8" d="M792.836 1919V1933" stroke="#00AEEF" stroke-width="0.5"/>
<text id="Margins" fill="black" xml:space="preserve" style="white-space: pre" font-family="Inter" font-size="13" font-weight="bold" letter-spacing="0em"><tspan x="776" y="1952.73">Margins</tspan></text>
<text id="Leading and trailing margins on the left and right side of each symbol" fill="black" xml:space="preserve" style="white-space: pre" font-family="Inter" font-size="13" letter-spacing="0em"><tspan x="776" y="1970.73">Leading and trailing margins on the left and right side of each symbol</tspan></text>
<text id="can be adjusted by modifying the x-location of the margin guidelines." fill="black" xml:space="preserve" style="white-space: pre" font-family="Inter" font-size="13" letter-spacing="0em"><tspan x="776" y="1988.73">can be adjusted by modifying the x-location of the margin guidelines.</tspan></text>
<text id="Modifications are automatically applied proportionally to all" fill="black" xml:space="preserve" style="white-space: pre" font-family="Inter" font-size="13" letter-spacing="0em"><tspan x="776" y="2006.73">Modifications are automatically applied proportionally to all</tspan></text>
<text id="scales and weights." fill="black" xml:space="preserve" style="white-space: pre" font-family="Inter" font-size="13" letter-spacing="0em"><tspan x="776" y="2024.73">scales and weights.</tspan></text>
<g id="Group_5">
<path id="Vector_9" d="M1291.84 1934.87L1293.54 1936.57C1294.4 1937.44 1295.39 1937.38 1296.31 1936.36L1307.01 1924.57L1306.04 1923.6L1295.43 1935.28C1295.07 1935.68 1294.74 1935.77 1294.27 1935.3L1293.1 1934.14C1292.63 1933.68 1292.74 1933.34 1293.14 1932.98L1304.62 1922.18L1303.64 1921.21L1292.05 1932.1C1291.06 1933.02 1290.98 1934 1291.84 1934.87ZM1298.26 1916.67C1297.84 1917.08 1297.81 1917.66 1298.04 1918.05C1298.28 1918.41 1298.74 1918.64 1299.38 1918.48C1300.85 1918.14 1302.37 1918.08 1303.79 1919.02L1303.21 1920.47C1302.87 1921.3 1303.04 1921.89 1303.58 1922.43L1305.88 1924.75C1306.36 1925.24 1306.77 1925.26 1307.34 1925.16L1308.4 1924.96L1309.07 1925.64L1309.03 1926.19C1308.99 1926.69 1309.12 1927.07 1309.61 1927.55L1310.37 1928.29C1310.85 1928.77 1311.46 1928.8 1311.93 1928.33L1314.84 1925.41C1315.31 1924.94 1315.29 1924.35 1314.81 1923.87L1314.04 1923.11C1313.56 1922.63 1313.19 1922.47 1312.71 1922.51L1312.13 1922.56L1311.49 1921.93L1311.73 1920.8C1311.86 1920.24 1311.71 1919.8 1311.12 1919.21L1308.92 1917.02C1305.58 1913.7 1301.15 1913.78 1298.26 1916.67ZM1299.75 1917.04C1302.18 1915.27 1305.47 1915.57 1307.7 1917.8L1310.13 1920.21C1310.37 1920.44 1310.41 1920.63 1310.34 1920.97L1310.02 1922.45L1311.52 1923.94L1312.51 1923.88C1312.76 1923.87 1312.84 1923.89 1313.03 1924.08L1313.61 1924.66L1311.17 1927.1L1310.59 1926.53C1310.4 1926.33 1310.37 1926.25 1310.38 1925.99L1310.45 1925.01L1308.95 1923.53L1307.43 1923.78C1307.11 1923.85 1306.96 1923.82 1306.71 1923.59L1304.71 1921.58C1304.46 1921.35 1304.43 1921.18 1304.59 1920.81L1305.46 1918.72C1303.9 1917.27 1301.87 1916.64 1299.84 1917.24C1299.68 1917.28 1299.63 1917.15 1299.75 1917.04Z" fill="black"/>
</g>
<text id="Exporting" fill="black" xml:space="preserve" style="white-space: pre" font-family="Inter" font-size="13" font-weight="bold" letter-spacing="0em"><tspan x="1289" y="1952.73">Exporting</tspan></text>
<text id="Symbols should be outlined when exporting to ensure the" fill="black" xml:space="preserve" style="white-space: pre" font-family="Inter" font-size="13" letter-spacing="0em"><tspan x="1289" y="1970.73">Symbols should be outlined when exporting to ensure the</tspan></text>
<text id="design is preserved when submitting to Xcode." fill="black" xml:space="preserve" style="white-space: pre" font-family="Inter" font-size="13" letter-spacing="0em"><tspan x="1289" y="1988.73">design is preserved when submitting to Xcode.</tspan></text>
<text id="template-version" fill="black" xml:space="preserve" style="white-space: pre" font-family="Inter" font-size="13" letter-spacing="0em"><tspan x="2946.54" y="1932.73">Template v.6.0</tspan></text>
<text id="Requires Xcode 16 or greater" fill="black" xml:space="preserve" style="white-space: pre" font-family="Inter" font-size="13" letter-spacing="0em"><tspan x="2858.16" y="1950.73">Requires Xcode 16 or greater</tspan></text>
<text id="descriptive-name" fill="black" xml:space="preserve" style="white-space: pre" font-family="Inter" font-size="13" letter-spacing="0em"><tspan x="2810.58" y="1968.73">Generated from square.and.arrow.up</tspan></text>
<text id="Typeset at 100.0 points" fill="black" xml:space="preserve" style="white-space: pre" font-family="Inter" font-size="13" letter-spacing="0em"><tspan x="2892.56" y="1986.73">Typeset at 100.0 points</tspan></text>
<text id="Small" fill="black" xml:space="preserve" style="white-space: pre" font-family="Inter" font-size="13" letter-spacing="0em"><tspan x="263" y="725.727">Small</tspan></text>
<text id="Medium_2" fill="black" xml:space="preserve" style="white-space: pre" font-family="Inter" font-size="13" letter-spacing="0em"><tspan x="263" y="1155.73">Medium</tspan></text>
<text id="Large" fill="black" xml:space="preserve" style="white-space: pre" font-family="Inter" font-size="13" letter-spacing="0em"><tspan x="263" y="1585.73">Large</tspan></text>
</g>
<g id="Guides">
<g id="H-reference">
<path id="Vector_10" d="M339.994 696H342.638L368.328 628.868H369.03V625.541H367.123L339.994 696ZM350.688 671.52H385.981L385.231 669.272H351.438L350.688 671.52ZM394.12 696H396.764L369.638 625.541H368.433V628.868L394.12 696Z" fill="#27AAE1"/>
</g>
<path id="Baseline-S" d="M263 696H3036" stroke="#27AAE1" stroke-width="0.5"/>
<path id="Capline-S" d="M263 625.541H3036" stroke="#27AAE1" stroke-width="0.5"/>
<g id="H-reference_2">
<path id="Vector_11" d="M339.994 1126H342.638L368.328 1058.87H369.03V1055.54H367.123L339.994 1126ZM350.688 1101.52H385.981L385.231 1099.27H351.438L350.688 1101.52ZM394.12 1126H396.764L369.638 1055.54H368.433V1058.87L394.12 1126Z" fill="#27AAE1"/>
</g>
<path id="Baseline-M" d="M263 1126H3036" stroke="#27AAE1" stroke-width="0.5"/>
<path id="Capline-M" d="M263 1055.54H3036" stroke="#27AAE1" stroke-width="0.5"/>
<g id="H-reference_3">
<path id="Vector_12" d="M339.994 1556H342.638L368.328 1488.87H369.03V1485.54H367.123L339.994 1556ZM350.688 1531.52H385.981L385.231 1529.27H351.438L350.688 1531.52ZM394.12 1556H396.764L369.638 1485.54H368.433V1488.87L394.12 1556Z" fill="#27AAE1"/>
</g>
<path id="Baseline-L" d="M263 1556H3036" stroke="#27AAE1" stroke-width="0.5"/>
<path id="Capline-L" d="M263 1485.54H3036" stroke="#27AAE1" stroke-width="0.5"/>
<path id="right-margin-Black-S" d="M2980.81 600.785V720.121" stroke="#00AEEF" stroke-width="0.5"/>
<path id="left-margin-Black-S" d="M2885.99 600.785V720.121" stroke="#00AEEF" stroke-width="0.5"/>
<path id="right-margin-Regular-S" d="M1493.96 600.785V720.121" stroke="#00AEEF" stroke-width="0.5"/>
<path id="left-margin-Regular-S" d="M1405.73 600.785V720.121" stroke="#00AEEF" stroke-width="0.5"/>
<path id="right-margin-Ultralight-S" d="M601.625 600.785V720.121" stroke="#00AEEF" stroke-width="0.5"/>
<path id="left-margin-Ultralight-S" d="M517.797 600.785V720.121" stroke="#00AEEF" stroke-width="0.5"/>
</g>
<g id="Symbols">
<g id="Black-S">
<path id="Union" d="M2931.46 668.679C2932.07 668.679 2932.57 669.18 2932.57 669.798V692.979C2932.57 693.597 2932.07 694.098 2931.46 694.098C2930.84 694.098 2930.34 693.597 2930.34 692.979V669.798C2930.34 669.18 2930.84 668.679 2931.46 668.679ZM2933.69 627C2936.27 627 2938.72 629.066 2940.98 633.096C2942.91 632.148 2944.65 631.901 2946.14 632.437C2949.96 633.824 2951.07 639.683 2951.32 644.354C2951.6 649.413 2950.96 655.23 2949.78 658.498C2947.97 663.496 2943.23 666.609 2938.2 666.609C2937.82 666.609 2937.43 666.587 2937.05 666.551V681.536C2937.67 680.745 2938.43 679.882 2939.33 679.034C2939.63 677.521 2940.9 672.589 2945.25 670.269C2948.9 668.325 2953.65 668.766 2959.38 671.581C2959.88 671.828 2960.12 672.406 2959.94 672.937C2959.85 673.209 2957.73 679.435 2952.06 681.797C2950.65 682.385 2949.15 682.68 2947.58 682.68C2945.39 682.68 2943.05 682.108 2940.59 680.978C2938.57 682.947 2937.39 684.931 2937.05 685.556V692.979C2937.05 693.597 2936.55 694.098 2935.93 694.098C2935.31 694.097 2934.81 693.596 2934.81 692.979V666.121C2934.43 666.013 2934.05 665.901 2933.69 665.736C2932.25 666.342 2930.68 666.603 2929.19 666.609C2924.15 666.609 2919.42 663.496 2917.61 658.498C2916.42 655.228 2915.79 649.412 2916.06 644.354C2916.32 639.683 2917.42 633.823 2921.25 632.437C2922.89 631.844 2924.67 632.203 2926.42 633.07C2928.68 629.059 2931.12 627 2933.69 627ZM2957.45 673.143C2952.84 671.06 2949.1 670.754 2946.3 672.241C2944.34 673.288 2943.15 675.07 2942.44 676.639C2945.02 675.048 2948.29 673.95 2952.26 674.26C2952.88 674.309 2953.34 674.847 2953.29 675.463C2953.24 676.078 2952.71 676.532 2952.08 676.489C2948.1 676.17 2944.91 677.563 2942.5 679.354C2945.75 680.643 2948.67 680.781 2951.19 679.738C2954.74 678.266 2956.69 674.799 2957.45 673.143ZM2931.23 639.788C2927.52 636.051 2924.92 633.924 2922.01 634.54C2919.98 635.275 2918.59 638.989 2918.3 644.475C2918.01 649.817 2918.79 655.19 2919.71 657.735C2921.6 662.953 2927.38 665.66 2932.6 663.771C2935.13 662.855 2937.15 661.009 2938.29 658.575C2939.43 656.141 2939.55 653.408 2938.64 650.881C2937.72 648.334 2934.87 643.706 2931.23 639.788ZM2933.69 629.236C2932.02 629.236 2930.13 631.012 2928.33 634.22C2929.98 635.37 2931.55 636.846 2932.87 638.266C2936.32 641.975 2939.56 646.85 2940.74 650.118C2941.86 653.208 2941.71 656.548 2940.32 659.523C2939.43 661.413 2938.11 663.009 2936.47 664.211C2941.2 665.042 2945.99 662.393 2947.68 657.735C2948.6 655.19 2949.38 649.817 2949.09 644.475C2948.79 638.989 2947.4 635.275 2945.37 634.54C2943.6 633.891 2940.74 635.306 2937.52 638.404C2937.07 638.832 2936.37 638.82 2935.94 638.374C2935.51 637.93 2935.52 637.221 2935.97 636.793C2937.03 635.765 2938.07 634.919 2939.06 634.229C2937.26 631.016 2935.37 629.236 2933.69 629.236Z" fill="#3B0F56"/>
</g>
<g id="Regular-S">
<path id="Union_2" d="M1447.46 668.679C1448.07 668.679 1448.57 669.18 1448.57 669.798V692.979C1448.57 693.597 1448.07 694.098 1447.46 694.098C1446.84 694.098 1446.34 693.597 1446.34 692.979V669.798C1446.34 669.18 1446.84 668.679 1447.46 668.679ZM1449.69 627C1452.27 627 1454.72 629.066 1456.98 633.096C1458.91 632.148 1460.65 631.901 1462.14 632.437C1465.96 633.824 1467.07 639.683 1467.32 644.354C1467.6 649.413 1466.96 655.23 1465.78 658.498C1463.97 663.496 1459.23 666.609 1454.2 666.609C1453.82 666.609 1453.43 666.587 1453.05 666.551V681.536C1453.67 680.745 1454.43 679.882 1455.33 679.034C1455.63 677.521 1456.9 672.589 1461.25 670.269C1464.9 668.325 1469.65 668.766 1475.38 671.581C1475.88 671.828 1476.12 672.406 1475.94 672.937C1475.85 673.209 1473.73 679.435 1468.06 681.797C1466.65 682.385 1465.15 682.68 1463.58 682.68C1461.39 682.68 1459.05 682.108 1456.59 680.978C1454.57 682.947 1453.39 684.931 1453.05 685.556V692.979C1453.05 693.597 1452.55 694.098 1451.93 694.098C1451.31 694.097 1450.81 693.596 1450.81 692.979V666.121C1450.43 666.013 1450.05 665.901 1449.69 665.736C1448.25 666.342 1446.68 666.603 1445.19 666.609C1440.15 666.609 1435.42 663.496 1433.61 658.498C1432.42 655.228 1431.79 649.412 1432.06 644.354C1432.32 639.683 1433.42 633.823 1437.25 632.437C1438.89 631.844 1440.67 632.203 1442.42 633.07C1444.68 629.059 1447.12 627 1449.69 627ZM1473.45 673.143C1468.84 671.06 1465.1 670.754 1462.3 672.241C1460.34 673.288 1459.15 675.07 1458.44 676.639C1461.02 675.048 1464.29 673.95 1468.26 674.26C1468.88 674.309 1469.34 674.847 1469.29 675.463C1469.24 676.078 1468.71 676.532 1468.08 676.489C1464.1 676.17 1460.91 677.563 1458.5 679.354C1461.75 680.643 1464.67 680.781 1467.19 679.738C1470.74 678.266 1472.69 674.799 1473.45 673.143ZM1447.23 639.788C1443.52 636.051 1440.92 633.924 1438.01 634.54C1435.98 635.275 1434.59 638.989 1434.3 644.475C1434.01 649.817 1434.79 655.19 1435.71 657.735C1437.6 662.953 1443.38 665.66 1448.6 663.771C1451.13 662.855 1453.15 661.009 1454.29 658.575C1455.43 656.141 1455.55 653.408 1454.64 650.881C1453.72 648.334 1450.87 643.706 1447.23 639.788ZM1449.69 629.236C1448.02 629.236 1446.13 631.012 1444.33 634.22C1445.98 635.37 1447.55 636.846 1448.87 638.266C1452.32 641.975 1455.56 646.85 1456.74 650.118C1457.86 653.208 1457.71 656.548 1456.32 659.523C1455.43 661.413 1454.11 663.009 1452.47 664.211C1457.2 665.042 1461.99 662.393 1463.68 657.735C1464.6 655.19 1465.38 649.817 1465.09 644.475C1464.79 638.989 1463.4 635.275 1461.37 634.54C1459.6 633.891 1456.74 635.306 1453.52 638.404C1453.07 638.832 1452.37 638.82 1451.94 638.374C1451.51 637.93 1451.52 637.221 1451.97 636.793C1453.03 635.765 1454.07 634.919 1455.06 634.229C1453.26 631.016 1451.37 629.236 1449.69 629.236Z" fill="#3B0F56"/>
</g>
<g id="Ultralight-S">
<path id="Union_3" d="M617.457 668.679C618.074 668.679 618.575 669.18 618.575 669.798V692.979C618.575 693.597 618.074 694.098 617.457 694.098C616.839 694.098 616.339 693.597 616.339 692.979V669.798C616.339 669.18 616.839 668.679 617.457 668.679ZM619.693 627C622.272 627 624.722 629.066 626.984 633.096C628.911 632.148 630.654 631.901 632.135 632.437C635.964 633.823 637.071 639.683 637.324 644.354C637.598 649.413 636.963 655.23 635.779 658.498C633.967 663.496 629.233 666.609 624.2 666.609C623.818 666.609 623.433 666.587 623.049 666.551V681.536C623.67 680.745 624.43 679.882 625.331 679.034C625.627 677.521 626.9 672.589 631.254 670.269C634.904 668.325 639.654 668.766 645.376 671.581C645.877 671.828 646.12 672.406 645.944 672.937C645.855 673.206 643.734 679.435 638.062 681.797C636.65 682.385 635.152 682.68 633.577 682.68C631.39 682.68 629.054 682.107 626.589 680.978C624.575 682.948 623.393 684.931 623.049 685.556V692.979C623.049 693.597 622.548 694.098 621.93 694.098C621.313 694.098 620.812 693.597 620.812 692.979V666.121C620.436 666.013 620.052 665.901 619.693 665.736C618.248 666.343 616.678 666.604 615.187 666.609C610.153 666.609 605.42 663.496 603.609 658.498C602.425 655.228 601.789 649.412 602.063 644.354C602.317 639.683 603.423 633.823 607.253 632.437C608.889 631.844 610.668 632.203 612.418 633.07C614.675 629.059 617.119 627 619.693 627ZM643.446 673.143C638.841 671.06 635.096 670.754 632.304 672.241C630.341 673.288 629.15 675.07 628.44 676.639C631.024 675.048 634.289 673.95 638.261 674.26C638.877 674.309 639.336 674.847 639.288 675.463C639.239 676.078 638.715 676.532 638.084 676.489C634.103 676.17 630.914 677.563 628.497 679.354C631.748 680.643 634.668 680.781 637.187 679.738C640.74 678.266 642.689 674.799 643.446 673.143ZM617.231 639.788C613.517 636.051 610.923 633.924 608.014 634.54C605.984 635.275 604.594 638.989 604.297 644.475C604.007 649.817 604.79 655.19 605.713 657.735C607.602 662.953 613.384 665.66 618.603 663.771C621.13 662.855 623.15 661.009 624.29 658.575C625.429 656.141 625.553 653.408 624.637 650.881C623.715 648.334 620.875 643.706 617.231 639.788ZM619.693 629.236C618.018 629.237 616.129 631.012 614.333 634.22C615.983 635.37 617.549 636.846 618.869 638.266C622.32 641.975 625.556 646.85 626.741 650.118C627.859 653.208 627.709 656.548 626.316 659.523C625.431 661.413 624.109 663.009 622.473 664.211C627.197 665.042 631.988 662.393 633.675 657.735C634.598 655.19 635.38 649.817 635.091 644.475C634.792 638.99 633.404 635.275 631.374 634.54C629.598 633.891 626.736 635.306 623.517 638.404C623.073 638.832 622.365 638.821 621.936 638.374C621.508 637.93 621.522 637.221 621.967 636.793C623.034 635.765 624.067 634.919 625.061 634.229C623.262 631.016 621.368 629.236 619.693 629.236Z" fill="#3B0F56"/>
</g>
</g>
</g>
<defs>
<clipPath id="clip0_175_358">
<rect width="3300" height="2200" fill="white"/>
</clipPath>
</defs>
</svg>
